<svg width="22" height="29" viewBox="0 0 22 29" fill="none" xmlns="http://www.w3.org/2000/svg">
<path fill-rule="evenodd" clip-rule="evenodd" d="M5.7959 27.064C7.3079 27.976 9.0239 28.432 10.9439 28.432C12.2879 28.432 13.5359 28.186 14.6879 27.694C15.5738 27.3157 16.3178 26.7989 16.9199 26.1437V28H21.9599V0.748047H16.5599V9.99442C16.0453 9.48361 15.4393 9.05949 14.7419 8.72205C13.6259 8.18205 12.3479 7.91205 10.9079 7.91205C9.0359 7.91205 7.3439 8.36805 5.8319 9.28005C4.3199 10.192 3.1199 11.422 2.2319 12.97C1.3439 14.518 0.899902 16.252 0.899902 18.172C0.899902 20.068 1.3379 21.796 2.2139 23.356C3.0899 24.916 4.2839 26.152 5.7959 27.064ZM14.1839 22.888C13.4399 23.344 12.5759 23.572 11.5919 23.572C10.6079 23.572 9.7259 23.344 8.9459 22.888C8.1659 22.432 7.5599 21.796 7.1279 20.98C6.6959 20.164 6.4799 19.228 6.4799 18.172C6.4799 17.116 6.6959 16.186 7.1279 15.382C7.5599 14.578 8.1659 13.942 8.9459 13.474C9.7259 13.006 10.6079 12.772 11.5919 12.772C12.5759 12.772 13.4399 13 14.1839 13.456C14.9279 13.912 15.5099 14.548 15.9299 15.364C16.3499 16.18 16.5599 17.116 16.5599 18.172C16.5599 19.228 16.3499 20.164 15.9299 20.98C15.5099 21.796 14.9279 22.432 14.1839 22.888Z" fill="#13183F"/>
</svg>
