<svg width="21" height="22" viewBox="0 0 21 22" fill="none" xmlns="http://www.w3.org/2000/svg">
<path d="M11.1641 21.432C9.07605 21.432 7.26405 20.97 5.72805 20.046C4.19205 19.122 3.00405 17.88 2.16405 16.32C1.32405 14.76 0.904053 13.032 0.904053 11.136C0.904053 9.16799 1.34205 7.41599 2.21805 5.87999C3.09405 4.34399 4.27605 3.13199 5.76405 2.24399C7.25205 1.35599 8.93205 0.911987 10.8041 0.911987C12.3641 0.911987 13.7441 1.15799 14.9441 1.64999C16.1441 2.14199 17.1581 2.83199 17.9861 3.71999C18.8141 4.60799 19.4441 5.63399 19.8761 6.79799C20.3081 7.96199 20.5241 9.22799 20.5241 10.596C20.5241 10.98 20.5061 11.358 20.4701 11.73C20.4341 12.102 20.3681 12.42 20.2721 12.684H5.54805V8.72399H17.2121L14.6561 10.596C14.8961 9.56399 14.8841 8.64599 14.6201 7.84199C14.3561 7.03799 13.8941 6.40199 13.2341 5.93399C12.5741 5.46599 11.7641 5.23199 10.8041 5.23199C9.86805 5.23199 9.06405 5.45999 8.39205 5.91599C7.72005 6.37199 7.21605 7.04399 6.88005 7.93199C6.54405 8.81999 6.41205 9.89999 6.48405 11.172C6.38805 12.276 6.52005 13.248 6.88005 14.088C7.24005 14.928 7.79205 15.582 8.53605 16.05C9.28005 16.518 10.1801 16.752 11.2361 16.752C12.1961 16.752 13.0181 16.56 13.7021 16.176C14.3861 15.792 14.9201 15.264 15.3041 14.592L19.6241 16.644C19.2401 17.604 18.6341 18.444 17.8061 19.164C16.9781 19.884 16.0001 20.442 14.8721 20.838C13.7441 21.234 12.5081 21.432 11.1641 21.432Z" fill="#13183F"/>
</svg>
