<svg width="18" height="22" viewBox="0 0 18 22" fill="none" xmlns="http://www.w3.org/2000/svg">
<path d="M9.68399 21.432C7.52399 21.432 5.64599 20.922 4.04999 19.902C2.45399 18.882 1.36799 17.508 0.791992 15.78L4.75199 13.908C5.25599 14.964 5.93999 15.792 6.80399 16.392C7.66799 16.992 8.62799 17.292 9.68399 17.292C10.452 17.292 11.04 17.136 11.448 16.824C11.856 16.512 12.06 16.08 12.06 15.528C12.06 15.24 11.988 14.994 11.844 14.79C11.7 14.586 11.484 14.4 11.196 14.232C10.908 14.064 10.548 13.92 10.116 13.8L6.76799 12.864C5.15999 12.408 3.92399 11.67 3.05999 10.65C2.19599 9.62999 1.76399 8.42399 1.76399 7.03199C1.76399 5.80799 2.07599 4.73999 2.69999 3.82799C3.32399 2.91599 4.19999 2.20199 5.32799 1.68599C6.45599 1.16999 7.75199 0.911987 9.21599 0.911987C11.136 0.911987 12.822 1.36199 14.274 2.26199C15.726 3.16199 16.752 4.42799 17.352 6.05999L13.356 7.93199C13.068 7.11599 12.546 6.46199 11.79 5.96999C11.034 5.47799 10.176 5.23199 9.21599 5.23199C8.51999 5.23199 7.97399 5.37599 7.57799 5.66399C7.18199 5.95199 6.98399 6.34799 6.98399 6.85199C6.98399 7.11599 7.05599 7.35599 7.19999 7.57199C7.34399 7.78799 7.57799 7.97999 7.90199 8.14799C8.22599 8.31599 8.62799 8.47199 9.10799 8.61599L12.24 9.55199C13.872 10.032 15.12 10.758 15.984 11.73C16.848 12.702 17.28 13.896 17.28 15.312C17.28 16.536 16.962 17.604 16.326 18.516C15.69 19.428 14.808 20.142 13.68 20.658C12.552 21.174 11.22 21.432 9.68399 21.432Z" fill="#13183F"/>
</svg>
